# xmcd
#
# Track frame offsets:
#	150
#	16630
#	32530
#	46955
#	62793
#	80730
#	102503
#	118833
#	136860
#	154648
#	171768
#	174515
#	191378
#	211370
#
# Disc length: 3049 seconds
#
# Revision: 1
# Processed by: cddbd v1.5.2PL0 Copyright (c) Steve Scherf et al.
# Submitted via: audiograbber 1.83.01
#
DISCID=b30be70e
DTITLE=Pensacola Company - The Real Country Live
DYEAR=1993
DGENRE=Country
TTITLE0=Pensacola Company - Weit Von Zuhaus
TTITLE1=Pensacola Company - Blanket On The Ground
TTITLE2=Pensacola Company - Bleib Bei Mir
TTITLE3=Pensacola Company - The Gambler
TTITLE4=Pensacola Company - Always On My Mind
TTITLE5=Pensacola Company - Wabash Cannonball
TTITLE6=Pensacola Company - Ich Moecht So Gerne Mal.....
TTITLE7=Pensacola Company - Willy
TTITLE8=Pensacola Company - Leavin On A Jetplane
TTITLE9=Pensacola Company - Gipsy Woman
TTITLE10=Pensacola Company - Simon and Simon
TTITLE11=Pensacola Company - Hunger Auf Ein Weib
TTITLE12=Pensacola Company - The Fan
TTITLE13=Pensacola Company - Coid On The Shoulder
EXTD=
EXTT0=
EXTT1=
EXTT2=
EXTT3=
EXTT4=
EXTT5=
EXTT6=
EXTT7=
EXTT8=
EXTT9=
EXTT10=
EXTT11=
EXTT12=
EXTT13=
PLAYORDER=
